<?xml version="1.0" encoding="utf-8"?>
<!-- Generator: Adobe Illustrator 26.0.3, SVG Export Plug-In . SVG Version: 6.00 Build 0)  -->
<svg version="1.1" id="Layer_1" xmlns="http://www.w3.org/2000/svg" xmlns:xlink="http://www.w3.org/1999/xlink" x="0px" y="0px"
	 viewBox="0 0 40 40" style="enable-background:new 0 0 40 40;" xml:space="preserve">
<style type="text/css">
	.st0{fill:#2F2E41;}
</style>
<path class="st0" d="M1.7,30.6c0-6.2,0-12.4,0-18.5c0.1-0.2,0.1-0.3,0.2-0.5c0.2-0.4,0.6-0.5,1-0.4c0.1,0,0.3,0.1,0.4,0.2
	c0.5,0.3,1,0.7,1.5,1.1c2.2,1.7,4.4,3.4,6.7,5c2.1,1.6,4.2,3.2,6.3,4.8c1.1,0.8,2.8,0.9,3.9,0c1.3-0.9,2.5-1.9,3.7-2.8
	c1.3-1,2.6-2,3.9-3c1.9-1.4,3.8-2.9,5.7-4.3c0.5-0.4,1-0.7,1.5-1c0.5-0.3,0.9,0,1.2,0.5c0,0.1,0.1,0.2,0.1,0.3c0,6.2,0,12.4,0,18.5
	c-0.1,0.2-0.1,0.3-0.2,0.5c-0.2,0.3-0.4,0.7-0.6,0.9c-0.5,0.5-1.1,0.6-1.8,0.6c-8.4,0-16.8,0-25.2,0c-1.9,0-3.8,0-5.7,0
	c-0.8,0-1.6-0.3-2.1-1C2,31.4,1.9,31,1.7,30.6z"/>
<path class="st0" d="M19.8,7.4c4.8,0,9.6,0,14.5,0c0.3,0,0.6,0,0.9,0.1c0.5,0.1,0.6,0.5,0.3,0.9c-0.4,0.4-0.8,0.8-1.2,1.1
	c-1.8,1.4-3.5,2.8-5.3,4.2c-1.5,1.2-3.1,2.4-4.6,3.6c-0.7,0.6-1.4,1.1-2.1,1.7c-0.8,0.6-1.6,0.9-2.6,0.9c-1.1,0-1.9-0.5-2.7-1.1
	c-1.8-1.5-3.7-2.9-5.5-4.4c-1.7-1.3-3.3-2.6-5-3.9C5.8,9.8,5.1,9.2,4.4,8.6C4.1,8.4,3.8,8.2,4,7.8c0.1-0.4,0.5-0.4,0.8-0.4
	c0.2,0,0.4,0,0.6,0C10.2,7.4,15,7.4,19.8,7.4z"/>
</svg>
