<?xml version="1.0" encoding="utf-8"?>
<!-- Generator: Adobe Illustrator 26.0.3, SVG Export Plug-In . SVG Version: 6.00 Build 0)  -->
<svg version="1.1" id="Layer_1" xmlns="http://www.w3.org/2000/svg" xmlns:xlink="http://www.w3.org/1999/xlink" x="0px" y="0px"
	 viewBox="0 0 40 40" style="enable-background:new 0 0 40 40;" xml:space="preserve">
<style type="text/css">
	.st0{fill:#E94235;}
	.st1{fill:#35A753;}
	.st2{fill:#4285F3;}
	.st3{fill:#C4231D;}
	.st4{fill:#F9BA01;}
</style>
<path class="st0" d="M9.8,8.6c2.2,1.7,4.5,3.3,6.7,5c1,0.8,2.1,1.5,3.1,2.3c0.3,0.2,0.5,0.2,0.7,0c3.1-2.4,6.2-4.7,9.4-7
	c0.1-0.1,0.3-0.2,0.4-0.3c0,1,0,2,0,3c0,2.7,0,5.3,0,8c0,0,0,0,0,0.1c-1.7,1.3-3.4,2.5-5.1,3.8c-1.6,1.2-3.1,2.3-4.7,3.5
	c-0.3,0.2-0.5,0.2-0.7,0c-3.1-2.4-6.2-4.7-9.4-7c-0.1-0.1-0.3-0.2-0.4-0.3l-0.1-0.1c0.2-0.1,0.1-0.4,0.1-0.5
	C9.8,15.5,9.8,12,9.8,8.6z"/>
<path class="st1" d="M30.2,19.6L30.2,19.6c0.3-0.3,0.6-0.4,0.8-0.6c1.6-1.2,3.2-2.4,4.8-3.6c0.9-0.7,1.8-1.3,2.7-2
	c0.1,0.2,0.1,0.3,0.1,0.5c0,5.8,0,11.6,0,17.5c0,1.7-1,2.7-2.7,2.7c-1.8,0-3.5,0-5.3,0c-0.4,0-0.5-0.1-0.5-0.5
	C30.2,28.9,30.2,24.2,30.2,19.6z"/>
<path class="st2" d="M9.7,19.5l0.1,0.1c0,4.6,0,9.2,0,13.8c0,0.5-0.1,0.6-0.6,0.6c-1.7,0-3.4,0-5.1,0c-1.6,0-2.8-1.2-2.8-2.8
	c0-5.8,0-11.6,0-17.5c0-0.2,0-0.4,0.1-0.5c0.4,0.3,0.8,0.6,1.2,0.9C5,15.9,7.3,17.7,9.7,19.5z"/>
<path class="st3" d="M9.7,19.5c-2.4-1.8-4.8-3.5-7.1-5.3c-0.4-0.3-0.8-0.6-1.2-0.9C1.3,11.9,1.2,10.4,1.5,9C2,6.4,5,5.2,7.2,6.6
	c0.9,0.6,1.8,1.3,2.6,2c0,3.4,0,6.9,0,10.3C9.8,19.1,9.9,19.3,9.7,19.5z"/>
<path class="st4" d="M38.6,13.3c-0.9,0.7-1.8,1.3-2.7,2c-1.6,1.2-3.2,2.4-4.8,3.6c-0.3,0.2-0.5,0.4-0.8,0.6c0-2.7,0-5.3,0-8
	c0-1,0-2,0-3c0.9-0.7,1.7-1.4,2.6-2c1.2-0.8,2.5-0.8,3.8-0.2c1.3,0.7,2,1.8,2,3.3c0,1,0,2.1,0,3.1C38.7,13,38.7,13.2,38.6,13.3z"/>
</svg>
