<?xml version="1.0" encoding="utf-8"?>
<!-- Generator: Adobe Illustrator 26.0.3, SVG Export Plug-In . SVG Version: 6.00 Build 0)  -->
<svg version="1.1" id="Layer_1" xmlns="http://www.w3.org/2000/svg" xmlns:xlink="http://www.w3.org/1999/xlink" x="0px" y="0px"
	 viewBox="0 0 24 24" style="enable-background:new 0 0 24 24;" xml:space="preserve">
<style type="text/css">
	.st0{fill:none;}
	.st1{fill:#E8E8E8;}
</style>
<path class="st0" d="M-462.5,18.5c0,48.2,39.1,87.3,87.3,87.3c48.2,0,87.3-39.1,87.3-87.3c0-0.4,0-0.8,0-1.2h-87.2v-86
	C-423.5-68.7-462.5-29.7-462.5,18.5z"/>
<path class="st1" d="M21.3,12c0,5.1-4.2,9.3-9.3,9.3c-5.1,0-9.3-4.2-9.3-9.3c0-5.1,4.2-9.3,9.3-9.3V0.2C5.5,0.2,0.2,5.5,0.2,12
	c0,6.5,5.3,11.8,11.8,11.8c6.5,0,11.8-5.3,11.8-11.8c0,0,0-0.1,0-0.1h-2.5C21.3,11.9,21.3,12,21.3,12z"/>
</svg>
