<?xml version="1.0" encoding="utf-8"?>
<!-- Generator: Adobe Illustrator 26.0.3, SVG Export Plug-In . SVG Version: 6.00 Build 0)  -->
<svg version="1.1" id="Layer_1" xmlns="http://www.w3.org/2000/svg" xmlns:xlink="http://www.w3.org/1999/xlink" x="0px" y="0px"
	 viewBox="0 0 100 100" style="enable-background:new 0 0 100 100;" xml:space="preserve">
<style type="text/css">
	.st0{fill:#969696;}
</style>
<g>
	<path class="st0" d="M29,15.7c1.3-0.9,2.5-1.7,4-2.7c0.9,1.1,1.7,1.9,2.7,3.1c-4.1,3.3-8.4,6.2-11.3,10.4c-2.9,4.2-5.6,8.5-8,13
		c-2.4,4.5-4.6,9.1-5.6,14.2c2.9,0.9,5.5,1.5,8.1,2.5c8.7,3.3,14.3,9.2,15.1,18.8c0.2,2.7,1.3,4.1,3.8,5c0.2-0.4,0.6-0.8,0.7-1.3
		c1.4-4.4,2.8-8.7,4.2-13.1c0.8-2.6-0.9-5.7-3.5-6.5c-2.6-0.7-5.2-1.4-7.8-1.9c-1.7-0.3-2.7-1.2-3.4-2.8c-1-2.4-2.2-4.7-3.3-7
		c-0.2-0.5-0.4-1.1-0.6-1.6c0.7-0.7,1.2-0.6,1.5,0.1c0.8,1.7,1.7,3.4,2.5,5.1c0.1,0.3,0.3,0.6,0.4,0.9c1.6,3.3,1.6,3.3,5.2,4.2
		c1.9,0.5,3.8,1.1,5.8,1.5c1.5,0.3,2.5,1.1,3.2,2.3c0.3,0.6,0.7,1.2,1.1,1.7c1,1.1,0.9,2.2,0.5,3.6c-1.8,5.2-3.4,10.5-5.2,15.8
		c-0.6,1.7-0.5,3.1,0.5,4.6c1.6,2.4,2.9,4.9,4.4,7.6c1-0.3,2-0.6,3.2-1c-1.5-2-4.3-2.6-3.8-5.7c1.8-0.4,3.8-0.8,6.1-1.3
		c0,2.6,0,5,0,7.6c-1,0.4-2.1,0.9-3.2,1.4c1.4,1.1,5.1,1.2,7.9,0.1c-1.1-0.4-1.9-0.7-2.6-0.9c-0.8-0.3-1.4-0.7-1.3-1.7
		c0-1.6,0-3.1,0.1-4.7c0-0.5,0.2-1,0.3-1.8c2.1,0.4,4.1,0.8,6,1.2c0.4,3-2.2,3.8-3.9,5.7c1.1,0.4,1.9,0.8,3,1.2c1.2-2,2.1-4,3.5-5.7
		c2.1-2.8,2.2-5.4,1-8.6c-1.7-4.4-2.9-9-4.5-13.5c-0.5-1.5-0.3-2.5,0.4-3.8c1.5-2.7,3.6-4,6.5-4.5c1.8-0.3,3.5-0.9,5.3-1.3
		c1.4-0.3,2.3-1,2.8-2.3c1.1-2.5,2.3-4.8,3.4-7.3c0.3-0.7,0.7-1.3,1.8-0.4c-0.5,1.1-1,2.2-1.5,3.4c-0.9,1.9-1.8,3.7-2.6,5.6
		c-0.6,1.3-1.5,2-2.9,2.3c-2.5,0.6-5,1.3-7.6,1.8c-2.5,0.5-3.3,2.6-4.4,4.4c-0.2,0.3-0.1,0.9,0,1.3c1.6,4.9,3.2,9.9,4.8,14.8
		c0.1,0.2,0.3,0.4,0.5,0.6c2.2-0.8,3.5-2,3.7-4.6c0.2-2.6,0.6-5.5,1.8-7.7c3-5.3,7.1-9.5,13.2-11.4c2.6-0.8,5.3-1.6,8.1-2.4
		c-0.7-5.2-3.1-9.7-5.5-14.2c-2.4-4.5-4.9-9-8.1-12.9c-3.1-3.9-7.1-7.2-10.9-10.9c0.5-0.7,1.2-1.5,1.9-2.3c1.5,0.6,3.1,0.9,3.8,2.4
		c-0.1,0.2-0.2,0.4-0.3,0.6c-1-0.3-1.9-0.6-2.9-0.9c-0.1,0.1-0.1,0.2-0.2,0.3c0.3,0.3,0.5,0.7,0.9,1c5.1,3.6,9.2,8.1,12.3,13.5
		c0.4,0.6,0.9,1.2,1.7,1.7c-0.2-0.7-0.5-1.4-0.7-2.1c-0.3-0.8-0.9-1.4-0.4-2.4c0.2-0.4-0.3-1.1-0.6-1.6c-1.7-2.5-3.5-5-5.3-7.4
		c-0.7-1-0.8-1.8-0.1-2.8c1.3-1.9,2.5-3.9,3.8-6c2.2,3,2.3,6,1.4,9.4c-1.7-0.3-1.1-1.6-1.1-2.5c-0.1-1,0-2,0-3.4
		c-1.5,0.9-1.9,2.1-2.4,3.1c-0.2,0.4-0.1,1.2,0.2,1.7c1.4,2.1,2.9,4.1,4.4,6.2C84.2,19,81.5,10,77.7,6.2c-0.2,0.7-0.5,1.3-0.6,2
		c-0.8,3.3-2.5,6.1-4.5,8.7c-0.4,0.6-0.9,1.4-1.9,0.4c0.1-0.2,0.1-0.6,0.3-0.8c2.6-3.3,4.3-7.1,5.1-11.2c0.1-0.6,0.6-1.5,1-1.5
		c0.5-0.1,1.3,0.5,1.6,1c4.7,6.2,6.8,13,3.7,20.6c-0.6,1.5-0.7,2.7,0,4.2c1.4,2.8,2.3,5.7,2.7,8.9c0.3,2.1,1.6,4.1,2.6,6.2
		c1.5,3.3,2.8,6.7,3.2,10.5c-3,0.8-5.9,1.5-8.7,2.2c-3.2,6.7-8.3,11.1-14.4,15c-0.2,1.4-0.5,3.1-0.6,4.8c-0.1,1.4-0.6,2.3-1.8,2.9
		c-0.9,0.5-1.8,1.1-2.8,1.7c0.6,1.9-0.3,3.4-1.3,4.9c-1.2,1.8-2.4,3.6-3.2,5.6c-0.8,1.9-2.5,2.6-3.8,4c-0.3,0.4-1.1,0.3-1.7,0.4
		c-1.4,0.1-2.8,0-4.1,0.1c-3,0.2-4.9-1.4-6.3-3.7c-1.4-2.3-2.7-4.6-4.1-6.9c-0.8-1.3-1.4-2.5-0.8-4.2c-1.2-0.7-2.2-1.5-3.3-2.1
		c-0.9-0.5-1.3-1.2-1.4-2.3c-0.1-1.6-0.4-3.3-0.6-4.9c-5.6-2.7-10.2-6.5-13.6-11.7c-0.1-0.2-0.4-0.4-0.4-0.6
		c-0.9-3.3-3.5-3.9-6.3-4.4c-0.8-0.1-1.7-0.3-2.8-0.5c0.3-1.7,0.5-3.3,1-4.9c0.5-1.7,1.1-3.3,1.8-4.9c0.9-2.3,1.8-4.4,2-7
		c0.3-4.1,2-8,3.9-11.3c-0.6-3.1-1.4-5.8-1.6-8.6c-0.3-5.2,1.9-9.6,4.8-13.7c0.2-0.3,0.6-0.7,0.9-0.9c0.9-0.7,1.6-0.5,2,0.6
		c0.3,0.7,0.3,1.5,0.6,2.3c1,2.5,2,5,3.1,7.4C27.8,14.7,28.5,15.2,29,15.7c0.1,0.6,0.2,1.2,0.3,1.8c-1.1,0.6-1.5-0.1-1.9-0.6
		c-2-2.7-3.7-5.6-4.5-9c-0.1-0.5-0.3-1.1-0.5-1.7c-4.5,4.9-6,13.4-3.1,17.7c1.2-1.7,2.4-3.2,3.5-4.8c1.6-2.3,1.2-3.5-1.5-5.3
		c0,1.8,0,3.5,0,5.6c-0.7-0.5-1.4-0.7-1.4-1c-0.4-3-0.5-5.9,1.7-8.7c1.6,2.6,3.1,5,4.6,7.6c-2.2,3-4.2,5.9-6.3,8.7
		c-1.3,1.8-3.5,8-3.4,9.8c0.5-0.8,0.9-1.5,1.3-2.1c3-4.8,5.8-9.6,10.2-13.3c1.4-1.2,3-2.4,4.4-3.6c0.3-0.3,0.4-0.7,0.8-1.4
		C31.5,15.6,30.3,17.1,29,15.7z M19.1,58.2c2.4,5.2,8.4,10.8,12.2,11.6C30,65.1,23.7,59,19.1,58.2z M68.9,69.3
		c4.9-2.4,10.2-8.1,10.6-11.2C74.7,60.9,71.1,64.5,68.9,69.3z"/>
	<path class="st0" d="M26.9,26.8c2,2.8,3.8,5.3,5.9,8.2c-2.5,1.5-4.8,3-7.2,4.4c-1.2,0.7-1.8-0.5-2.7-0.9c2-3.9,2.3-4.3,4-4.4
		c-0.2,0.6-0.4,1.1-0.6,1.7c-0.2,0.5-0.5,0.9-0.5,1.7c1.5-0.9,2.9-1.8,4.6-2.8c-1.2-1.7-2.3-3.2-3.6-5.1c-2.4,3.5-4.6,6.8-6.9,10.2
		c0.7,0.6,1.4,1,1.9,1.5c0.8,0.7,1.6,0.7,2.6,0.2c2.1-1.2,4.3-2.2,6.4-3.4c0.8-0.4,1.7-0.8,2.5-1.3c3.1,2.2,6,4.3,9,6.4
		c0.8,0.6,1.1,1.3,1,2.2c-0.3,2.8-0.7,5.6-1.1,8.7c-1.2-0.2-2.2-0.3-3.4-0.5c0-3.1-0.6-5.8-3.5-7.4c-1.9-1.1-3.9-1.8-6.2-1.2
		c0.3,2.2,1.5,3.6,3.2,4.5c1.5,0.9,3.2,1.4,5,2.1c-3.5,2.2-9.1-2.1-10.1-7.5c2.2-1.4,5.9-1.2,8.7,0.5c2.6,1.6,3.2,2.6,5,7.4
		c0.3-2.2,0.6-4.4,0.8-6.6c0-0.5-0.5-1.3-1-1.6c-2.4-1.8-4.9-3.5-7.6-5.3c-2.8,1.4-5.5,2.8-8.3,4.3c-1.3,0.7-2.3,0.9-3.5-0.1
		c-1-0.9-2.3-1.6-3.3-2.3C18.7,38.6,23.8,30.6,26.9,26.8z"/>
	<path class="st0" d="M73.2,26.7c3.1,4.6,6,9,9.1,13.6c-1.9,1.3-3.6,2.4-5.4,3.5c-3.4-1.7-6.7-3.4-10.1-5.2
		c-2.6,1.8-5.2,3.6-7.8,5.5c-0.4,0.3-0.8,0.8-0.8,1.2c0.2,2.3,0.2,4.6,1.2,6.9c0.3-3.9,2.2-6.5,5.7-8c2.5-1.1,4.9-1.3,7.5-0.4
		c-0.5,5.4-5.4,9.5-10,8.2c0.5-0.4,0.8-0.7,1.1-0.9c1.3-0.5,2.6-0.8,3.8-1.5c1.9-1,2.5-2,3.2-4.7c-2.7-0.5-4.9,0.2-7,1.7
		c-2.3,1.6-2.6,4.1-2.8,6.8c-1.1,0.2-2,0.4-3.3,0.6c-0.4-3.1-0.8-6-1.1-8.9c-0.2-1.3,0.7-1.8,1.6-2.4c2.8-1.9,5.5-3.9,8.5-5.9
		c2.4,1.2,4.9,2.5,7.4,3.8c3.1,1.6,3.1,1.6,6-1c-1.1-1.6-2.1-3.2-3.2-4.9c-1.1-1.6-2.2-3.3-3.6-5.3c-1.3,1.7-2.4,3.3-3.8,5
		c1.6,1,2.9,1.8,4.3,2.6c0.8-1.3-1.6-2.2,0.2-3.6c1.1,1.6,2.1,3.1,3.1,4.6c-1.9,1.7-1.9,1.7-3.6,0.7c-2-1.2-4-2.4-6.2-3.8
		C69.3,32.3,71.2,29.6,73.2,26.7z"/>
	<path class="st0" d="M50.6,24.3c0.6-0.1,0.9-0.2,1.3-0.2c4.9-0.2,9.6-1.2,13.9-3.6c0.7-0.4,1.5-0.9,1.9,0.6
		c-4.6,3.1-9.8,4.3-15.5,4.6c0,3.4,0,6.8,0,10.6c1.4-0.9,2.6-1.6,3.8-2.4c1.2-0.8,2.3-1.5,3.4-2.3c-0.7-3.9-1.1-4.1-4.3-3.3
		c-0.1,1.3-0.2,2.8-0.4,4.3c-1.5-0.8-1.7-2.5-1-6.1c1.5-0.1,3-0.3,4.5-0.2c0.5,0,1.3,0.6,1.5,1.1c0.7,1.5,1.2,3,1.8,4.7
		c-3.6,2.4-7.1,4.7-10.9,7.3C50.6,34,50.6,29.2,50.6,24.3z"/>
	<path class="st0" d="M40.5,31.3c0.7,0.5,1.3,1,1.9,1.5c1.6,1.1,3.3,2.2,5.4,3.6c0.2-3.8,0.3-7.1,0.1-10.7
		c-5.7-0.3-10.9-1.4-15.6-4.5c0.2-1,0.6-1.3,1.5-0.9c0.2,0.1,0.5,0.2,0.7,0.3c4.1,2.3,8.5,3.2,13.2,3.5c0.5,0,1,0.1,1.8,0.2
		c0.4,4.9-0.1,9.7,0.2,15.2c-4-2.7-7.5-5-11.1-7.4c0.6-1.7,1.1-3.3,1.8-4.8c0.2-0.5,0.8-1,1.3-1c1.6,0,3.2,0.1,5.2,0.2
		c-0.2,2.2-0.3,4-0.5,5.9c0,0.1-0.6,0.1-1.1,0.2c-0.1-1.5-0.2-2.8-0.2-4.2C42.1,27.3,41.7,27.5,40.5,31.3z"/>
	<path class="st0" d="M43.7,85.5c-0.2-0.1-0.6-0.2-0.6-0.4c-0.2-1.7,1.6-3.8,3.2-3.9c2.3,0,4.7,0,7,0c1.3,0,2.1,0.3,2.7,1.5
		c0.4,0.8,0.9,1.6,1.3,2.4c-0.6,0.9-1.2,0.7-1.5,0.1c-1-2.6-3-2.8-5.2-2.5c-0.5,0-1,0.1-1.6,0c-2.3-0.3-4.1,0.2-4.9,2.6
		C44.1,85.4,43.8,85.4,43.7,85.5z"/>
</g>
</svg>
