<?xml version="1.0" encoding="utf-8"?>
<!-- Generator: Adobe Illustrator 26.0.3, SVG Export Plug-In . SVG Version: 6.00 Build 0)  -->
<svg version="1.1" id="Layer_1" xmlns="http://www.w3.org/2000/svg" xmlns:xlink="http://www.w3.org/1999/xlink" x="0px" y="0px"
	 viewBox="0 0 40 40" style="enable-background:new 0 0 40 40;" xml:space="preserve">
<style type="text/css">
	.st0{fill:#E8E8E8;}
</style>
<path class="st0" d="M20.5,20.8c1.6,0,3,0,4.6,0c1.9,0,3.1,0.9,3.7,2.5c0.4,1,0.8,2,1.2,3c0.2,0.4,0.2,0.9,0.4,1.3
	c0.1,0.4,0,0.7-0.2,0.9c-0.5,0.4-1,0.6-1.6,0.8c-1.2,0.4-2.3,0.5-3.5,0.7c-2.2,0.2-4.5,0.3-6.7,0.2c-1.2-0.1-2.3-0.2-3.5-0.3
	c-1.1-0.2-2.2-0.3-3.3-0.7c-0.3-0.1-0.5-0.2-0.9-0.4c-0.7-0.4-0.8-0.8-0.6-1.6c0.2-0.8,0.4-1.5,0.8-2.2c0.2-0.5,0.4-0.9,0.6-1.4
	c0.5-1.4,1.5-2.2,2.8-2.6c0.5-0.2,1.1-0.2,1.6-0.2C17.4,20.8,19,20.8,20.5,20.8z"/>
<circle class="st0" cx="20.1" cy="14.4" r="5.2"/>
</svg>
